# 66 vertices, 80 faces
vt 0.000000 0.000000
vt 0.000000 0.200000
vt 0.000000 0.400000
vt 0.000000 0.600000
vt 0.000000 0.800000
vt 0.000000 1.000000
vt 0.100000 0.000000
vt 0.100000 0.200000
vt 0.100000 0.400000
vt 0.100000 0.600000
vt 0.100000 0.800000
vt 0.100000 1.000000
vt 0.200000 0.000000
vt 0.200000 0.200000
vt 0.200000 0.400000
vt 0.200000 0.600000
vt 0.200000 0.800000
vt 0.200000 1.000000
vt 0.300000 0.000000
vt 0.300000 0.200000
vt 0.300000 0.400000
vt 0.300000 0.600000
vt 0.300000 0.800000
vt 0.300000 1.000000
vt 0.400000 0.000000
vt 0.400000 0.200000
vt 0.400000 0.400000
vt 0.400000 0.600000
vt 0.400000 0.800000
vt 0.400000 1.000000
vt 0.500000 0.000000
vt 0.500000 0.200000
vt 0.500000 0.400000
vt 0.500000 0.600000
vt 0.500000 0.800000
vt 0.500000 1.000000
vt 0.600000 0.000000
vt 0.600000 0.200000
vt 0.600000 0.400000
vt 0.600000 0.600000
vt 0.600000 0.800000
vt 0.600000 1.000000
vt 0.700000 0.000000
vt 0.700000 0.200000
vt 0.700000 0.400000
vt 0.700000 0.600000
vt 0.700000 0.800000
vt 0.700000 1.000000
vt 0.800000 0.000000
vt 0.800000 0.200000
vt 0.800000 0.400000
vt 0.800000 0.600000
vt 0.800000 0.800000
vt 0.800000 1.000000
vt 0.900000 0.000000
vt 0.900000 0.200000
vt 0.900000 0.400000
vt 0.900000 0.600000
vt 0.900000 0.800000
vt 0.900000 1.000000
vt 1.000000 0.000000
vt 1.000000 0.200000
vt 1.000000 0.400000
vt 1.000000 0.600000
vt 1.000000 0.800000
vt 1.000000 1.000000
v 1.000000 2.000000 1.000000
vn 0.000000 0.000000 -1.000000
v 1.000000 2.000000 1.000000
vn 0.000000 0.000000 -1.000000
v 1.000000 2.000000 1.000000
vn 0.000000 0.000000 -1.000000
v 1.000000 2.000000 1.000000
vn -0.000000 0.000000 -1.000000
v 1.000000 2.000000 1.000000
vn -0.000000 0.000000 -1.000000
v 1.000000 2.000000 1.000000
vn -0.000000 -0.000000 -1.000000
v 1.000000 2.000000 1.000000
vn -0.000000 -0.000000 -1.000000
v 1.000000 2.000000 1.000000
vn -0.000000 -0.000000 -1.000000
v 1.000000 2.000000 1.000000
vn 0.000000 -0.000000 -1.000000
v 1.000000 2.000000 1.000000
vn 0.000000 -0.000000 -1.000000
v 1.000000 2.000000 1.000000
vn 0.000000 0.000000 -1.000000
v 2.175570 2.000000 1.381966
vn 0.587785 0.000000 -0.809017
v 1.951056 2.690983 1.381966
vn 0.475528 0.345491 -0.809017
v 1.363271 3.118034 1.381966
vn 0.181636 0.559017 -0.809017
v 0.636729 3.118034 1.381966
vn -0.181636 0.559017 -0.809017
v 0.048943 2.690983 1.381966
vn -0.475528 0.345491 -0.809017
v -0.175571 2.000000 1.381966
vn -0.587785 -0.000000 -0.809017
v 0.048943 1.309017 1.381966
vn -0.475528 -0.345491 -0.809017
v 0.636729 0.881966 1.381966
vn -0.181636 -0.559017 -0.809017
v 1.363271 0.881966 1.381966
vn 0.181636 -0.559017 -0.809017
v 1.951056 1.309017 1.381966
vn 0.475528 -0.345491 -0.809017
v 2.175570 2.000000 1.381966
vn 0.587785 0.000000 -0.809017
v 2.902113 2.000000 2.381966
vn 0.951057 0.000000 -0.309017
v 2.538842 3.118034 2.381966
vn 0.769421 0.559017 -0.309017
v 1.587785 3.809017 2.381966
vn 0.293893 0.904508 -0.309017
v 0.412215 3.809017 2.381966
vn -0.293893 0.904508 -0.309017
v -0.538842 3.118034 2.381966
vn -0.769421 0.559017 -0.309017
v -0.902113 2.000000 2.381966
vn -0.951057 -0.000000 -0.309017
v -0.538842 0.881966 2.381966
vn -0.769421 -0.559017 -0.309017
v 0.412215 0.190983 2.381966
vn -0.293893 -0.904508 -0.309017
v 1.587785 0.190983 2.381966
vn 0.293893 -0.904508 -0.309017
v 2.538842 0.881966 2.381966
vn 0.769421 -0.559017 -0.309017
v 2.902113 2.000000 2.381966
vn 0.951057 0.000000 -0.309017
v 2.902113 2.000000 3.618034
vn 0.951057 0.000000 0.309017
v 2.538842 3.118034 3.618034
vn 0.769421 0.559017 0.309017
v 1.587785 3.809017 3.618034
vn 0.293893 0.904508 0.309017
v 0.412215 3.809017 3.618034
vn -0.293893 0.904508 0.309017
v -0.538842 3.118034 3.618034
vn -0.769421 0.559017 0.309017
v -0.902113 2.000000 3.618034
vn -0.951057 -0.000000 0.309017
v -0.538842 0.881966 3.618034
vn -0.769421 -0.559017 0.309017
v 0.412215 0.190983 3.618034
vn -0.293893 -0.904508 0.309017
v 1.587785 0.190983 3.618034
vn 0.293893 -0.904508 0.309017
v 2.538842 0.881966 3.618034
vn 0.769421 -0.559017 0.309017
v 2.902113 2.000000 3.618034
vn 0.951057 0.000000 0.309017
v 2.175570 2.000000 4.618034
vn 0.587785 0.000000 0.809017
v 1.951056 2.690983 4.618034
vn 0.475528 0.345491 0.809017
v 1.363271 3.118034 4.618034
vn 0.181636 0.559017 0.809017
v 0.636729 3.118034 4.618034
vn -0.181636 0.559017 0.809017
v 0.048943 2.690983 4.618034
vn -0.475528 0.345491 0.809017
v -0.175571 2.000000 4.618034
vn -0.587785 -0.000000 0.809017
v 0.048943 1.309017 4.618034
vn -0.475528 -0.345491 0.809017
v 0.636729 0.881966 4.618034
vn -0.181636 -0.559017 0.809017
v 1.363271 0.881966 4.618034
vn 0.181636 -0.559017 0.809017
v 1.951056 1.309017 4.618034
vn 0.475528 -0.345491 0.809017
v 2.175570 2.000000 4.618034
vn 0.587785 0.000000 0.809017
v 1.000000 2.000000 5.000000
vn -0.000000 -0.000000 1.000000
v 1.000000 2.000000 5.000000
vn -0.000000 -0.000000 1.000000
v 1.000000 2.000000 5.000000
vn -0.000000 -0.000000 1.000000
v 1.000000 2.000000 5.000000
vn 0.000000 -0.000000 1.000000
v 1.000000 2.000000 5.000000
vn 0.000000 -0.000000 1.000000
v 1.000000 2.000000 5.000000
vn 0.000000 0.000000 1.000000
v 1.000000 2.000000 5.000000
vn 0.000000 0.000000 1.000000
v 1.000000 2.000000 5.000000
vn 0.000000 0.000000 1.000000
v 1.000000 2.000000 5.000000
vn -0.000000 0.000000 1.000000
v 1.000000 2.000000 5.000000
vn -0.000000 0.000000 1.000000
v 1.000000 2.000000 5.000000
vn -0.000000 -0.000000 1.000000
f 1/6/1 13/11/13 12/5/12
f 2/12/2 14/17/14 13/11/13
f 3/18/3 15/23/15 14/17/14
f 4/24/4 16/29/16 15/23/15
f 5/30/5 17/35/17 16/29/16
f 6/36/6 18/41/18 17/35/17
f 7/42/7 19/47/19 18/41/18
f 8/48/8 20/53/20 19/47/19
f 9/54/9 21/59/21 20/53/20
f 10/60/10 22/65/22 21/59/21
f 12/5/12 13/11/13 24/10/24
f 12/5/12 24/10/24 23/4/23
f 13/11/13 14/17/14 25/16/25
f 13/11/13 25/16/25 24/10/24
f 14/17/14 15/23/15 26/22/26
f 14/17/14 26/22/26 25/16/25
f 15/23/15 16/29/16 27/28/27
f 15/23/15 27/28/27 26/22/26
f 16/29/16 17/35/17 28/34/28
f 16/29/16 28/34/28 27/28/27
f 17/35/17 18/41/18 29/40/29
f 17/35/17 29/40/29 28/34/28
f 18/41/18 19/47/19 30/46/30
f 18/41/18 30/46/30 29/40/29
f 19/47/19 20/53/20 31/52/31
f 19/47/19 31/52/31 30/46/30
f 20/53/20 21/59/21 32/58/32
f 20/53/20 32/58/32 31/52/31
f 21/59/21 22/65/22 33/64/33
f 21/59/21 33/64/33 32/58/32
f 23/4/23 24/10/24 35/9/35
f 23/4/23 35/9/35 34/3/34
f 24/10/24 25/16/25 36/15/36
f 24/10/24 36/15/36 35/9/35
f 25/16/25 26/22/26 37/21/37
f 25/16/25 37/21/37 36/15/36
f 26/22/26 27/28/27 38/27/38
f 26/22/26 38/27/38 37/21/37
f 27/28/27 28/34/28 39/33/39
f 27/28/27 39/33/39 38/27/38
f 28/34/28 29/40/29 40/39/40
f 28/34/28 40/39/40 39/33/39
f 29/40/29 30/46/30 41/45/41
f 29/40/29 41/45/41 40/39/40
f 30/46/30 31/52/31 42/51/42
f 30/46/30 42/51/42 41/45/41
f 31/52/31 32/58/32 43/57/43
f 31/52/31 43/57/43 42/51/42
f 32/58/32 33/64/33 44/63/44
f 32/58/32 44/63/44 43/57/43
f 34/3/34 35/9/35 46/8/46
f 34/3/34 46/8/46 45/2/45
f 35/9/35 36/15/36 47/14/47
f 35/9/35 47/14/47 46/8/46
f 36/15/36 37/21/37 48/20/48
f 36/15/36 48/20/48 47/14/47
f 37/21/37 38/27/38 49/26/49
f 37/21/37 49/26/49 48/20/48
f 38/27/38 39/33/39 50/32/50
f 38/27/38 50/32/50 49/26/49
f 39/33/39 40/39/40 51/38/51
f 39/33/39 51/38/51 50/32/50
f 40/39/40 41/45/41 52/44/52
f 40/39/40 52/44/52 51/38/51
f 41/45/41 42/51/42 53/50/53
f 41/45/41 53/50/53 52/44/52
f 42/51/42 43/57/43 54/56/54
f 42/51/42 54/56/54 53/50/53
f 43/57/43 44/63/44 55/62/55
f 43/57/43 55/62/55 54/56/54
f 45/2/45 46/8/46 57/7/57
f 46/8/46 47/14/47 58/13/58
f 47/14/47 48/20/48 59/19/59
f 48/20/48 49/26/49 60/25/60
f 49/26/49 50/32/50 61/31/61
f 50/32/50 51/38/51 62/37/62
f 51/38/51 52/44/52 63/43/63
f 52/44/52 53/50/53 64/49/64
f 53/50/53 54/56/54 65/55/65
f 54/56/54 55/62/55 66/61/66
